<svg xmlns="http://www.w3.org/2000/svg"  viewBox="0 0 100 100" width="100px" height="100px" baseProfile="basic"><path fill="#c7ede6" d="M87.215,56.71C88.35,54.555,89,52.105,89,49.5c0-6.621-4.159-12.257-10.001-14.478 C78.999,35.015,79,35.008,79,35c0-11.598-9.402-21-21-21c-9.784,0-17.981,6.701-20.313,15.757C36.211,29.272,34.638,29,33,29 c-7.692,0-14.023,5.793-14.89,13.252C12.906,43.353,9,47.969,9,53.5C9,59.851,14.149,65,20.5,65c0.177,0,0.352-0.012,0.526-0.022 C21.022,65.153,21,65.324,21,65.5C21,76.822,30.178,86,41.5,86c6.437,0,12.175-2.972,15.934-7.614C59.612,80.611,62.64,82,66,82 c4.65,0,8.674-2.65,10.666-6.518C77.718,75.817,78.837,76,80,76c6.075,0,11-4.925,11-11C91,61.689,89.53,58.727,87.215,56.71z"/><path fill="#fff" d="M15.5,51h-10C5.224,51,5,50.776,5,50.5S5.224,50,5.5,50h10c0.276,0,0.5,0.224,0.5,0.5 S15.777,51,15.5,51z"/><path fill="#fff" d="M18.5,51h-1c-0.276,0-0.5-0.224-0.5-0.5s0.224-0.5,0.5-0.5h1c0.276,0,0.5,0.224,0.5,0.5 S18.777,51,18.5,51z"/><path fill="#fff" d="M23.491,53H14.5c-0.276,0-0.5-0.224-0.5-0.5s0.224-0.5,0.5-0.5h8.991c0.276,0,0.5,0.224,0.5,0.5 S23.767,53,23.491,53z"/><path fill="#fff" d="M12.5,53h-1c-0.276,0-0.5-0.224-0.5-0.5s0.224-0.5,0.5-0.5h1c0.276,0,0.5,0.224,0.5,0.5 S12.777,53,12.5,53z"/><path fill="#fff" d="M9.5,53h-2C7.224,53,7,52.776,7,52.5S7.224,52,7.5,52h2c0.276,0,0.5,0.224,0.5,0.5 S9.777,53,9.5,53z"/><path fill="#fff" d="M15.5,55h-2c-0.276,0-0.5-0.224-0.5-0.5s0.224-0.5,0.5-0.5h2c0.276,0,0.5,0.224,0.5,0.5 S15.776,55,15.5,55z"/><path fill="#fff" d="M18.5,46c-0.177,0-0.823,0-1,0c-0.276,0-0.5,0.224-0.5,0.5c0,0.276,0.224,0.5,0.5,0.5 c0.177,0,0.823,0,1,0c0.276,0,0.5-0.224,0.5-0.5C19,46.224,18.776,46,18.5,46z"/><path fill="#fff" d="M18.5,48c-0.177,0-4.823,0-5,0c-0.276,0-0.5,0.224-0.5,0.5c0,0.276,0.224,0.5,0.5,0.5 c0.177,0,4.823,0,5,0c0.276,0,0.5-0.224,0.5-0.5C19,48.224,18.776,48,18.5,48z"/><path fill="#fff" d="M23.5,50c-0.177,0-2.823,0-3,0c-0.276,0-0.5,0.224-0.5,0.5c0,0.276,0.224,0.5,0.5,0.5 c0.177,0,2.823,0,3,0c0.276,0,0.5-0.224,0.5-0.5C24,50.224,23.776,50,23.5,50z"/><path fill="#6475a3" d="M70.308,70.992c-0.504,0-1.004-0.202-1.363-0.596c-0.659-0.727-0.584-1.833,0.167-2.47 c5.02-4.255,8.145-10.165,8.145-16.788c0-6.243-2.825-12.279-8.145-16.788c-0.752-0.637-0.827-1.743-0.167-2.47 c0.66-0.727,1.805-0.799,2.557-0.162c6.139,5.203,9.251,12.077,9.251,19.373c0,7.616-3.459,14.557-9.251,19.466 C71.158,70.849,70.731,70.992,70.308,70.992z"/><path fill="#472b29" d="M70.308,71.692c-0.719,0-1.404-0.301-1.881-0.826c-0.447-0.492-0.669-1.125-0.626-1.781 c0.043-0.659,0.348-1.261,0.859-1.693c5.093-4.316,7.897-10.089,7.897-16.254S73.752,39.2,68.66,34.884 c-0.511-0.433-0.816-1.035-0.859-1.694c-0.043-0.656,0.179-1.289,0.625-1.78c0.911-1.003,2.493-1.103,3.528-0.226 c6.125,5.191,9.499,12.261,9.499,19.907c0,7.706-3.374,14.809-9.499,20C71.497,71.479,70.912,71.692,70.308,71.692z M70.307,31.983c-0.312,0-0.623,0.125-0.844,0.368c-0.189,0.208-0.283,0.474-0.265,0.748c0.018,0.277,0.148,0.532,0.367,0.717 c5.412,4.585,8.393,10.737,8.393,17.321c0,6.583-2.98,12.735-8.393,17.322c-0.219,0.185-0.349,0.44-0.367,0.717 c-0.018,0.274,0.076,0.54,0.266,0.749c0.389,0.428,1.138,0.476,1.586,0.098c5.806-4.921,9.003-11.645,9.003-18.932 c0-7.228-3.197-13.918-9.004-18.839C70.835,32.072,70.571,31.983,70.307,31.983z"/><g><path fill="#fdfcef" d="M87.523,43.77c0,0,1.567,0,3.5,0s3.5-1.567,3.5-3.5c0-1.781-1.335-3.234-3.055-3.455 c0.028-0.179,0.055-0.358,0.055-0.545c0-1.933-1.567-3.5-3.5-3.5c-1.032,0-1.95,0.455-2.59,1.165 c-0.384-1.808-1.987-3.165-3.91-3.165c-2.209,0-4,1.791-4,4c0,0.191,0.03,0.374,0.056,0.558 c-0.428-0.344-0.965-0.558-1.556-0.558c-1.228,0-2.245,0.887-2.455,2.055c-0.179-0.028-0.358-0.055-0.545-0.055 c-1.933,0-3.5,1.567-3.5,3.5s1.567,3.5,3.5,3.5s7.5,0,7.5,0v0.5h7V43.77z"/><path fill="#472b29" d="M89.273,39.27c-0.138,0-0.25-0.112-0.25-0.25c0-1.223,0.995-2.218,2.218-2.218 c0.034,0.009,0.737-0.001,1.244,0.136c0.133,0.036,0.212,0.173,0.176,0.306c-0.036,0.134-0.173,0.213-0.306,0.176 c-0.444-0.12-1.1-0.12-1.113-0.118c-0.948,0-1.719,0.771-1.719,1.718C89.523,39.158,89.411,39.27,89.273,39.27z"/><circle cx="82.523" cy="43.77" r=".5" fill="#472b29"/><path fill="#472b29" d="M91.023,44.27h-3.5c-0.276,0-0.5-0.224-0.5-0.5s0.224-0.5,0.5-0.5h3.5c1.654,0,3-1.346,3-3 c0-1.496-1.125-2.768-2.618-2.959c-0.134-0.018-0.255-0.088-0.336-0.196s-0.115-0.244-0.094-0.377 c0.024-0.153,0.049-0.308,0.049-0.468c0-1.654-1.346-3-3-3c-0.85,0-1.638,0.355-2.219,1c-0.125,0.139-0.321,0.198-0.5,0.148 c-0.182-0.049-0.321-0.195-0.36-0.379c-0.341-1.604-1.779-2.769-3.42-2.769c-1.93,0-3.5,1.57-3.5,3.5 c0,0.143,0.021,0.28,0.041,0.418c0.029,0.203-0.063,0.438-0.242,0.54c-0.179,0.102-0.396,0.118-0.556-0.01 c-0.365-0.293-0.794-0.448-1.243-0.448c-0.966,0-1.792,0.691-1.963,1.644c-0.048,0.267-0.296,0.446-0.569,0.405 c-0.153-0.024-0.308-0.049-0.468-0.049c-1.654,0-3,1.346-3,3s1.346,3,3,3h7.5c0.276,0,0.5,0.224,0.5,0.5s-0.224,0.5-0.5,0.5h-7.5 c-2.206,0-4-1.794-4-4s1.794-4,4-4c0.059,0,0.116,0.002,0.174,0.006c0.414-1.186,1.537-2.006,2.826-2.006 c0.349,0,0.689,0.061,1.011,0.18c0.165-2.333,2.115-4.18,4.489-4.18c1.831,0,3.466,1.127,4.153,2.774 c0.68-0.499,1.502-0.774,2.347-0.774c2.206,0,4,1.794,4,4c0,0.048-0.001,0.095-0.004,0.142c1.743,0.448,3.004,2.027,3.004,3.858 C95.023,42.476,93.228,44.27,91.023,44.27z"/><path fill="#472b29" d="M85.523,43.27c-0.159,0-0.841,0-1,0c-0.276,0-0.5,0.224-0.5,0.5c0,0.276,0.224,0.5,0.5,0.5 c0.159,0,0.841,0,1,0c0.276,0,0.5-0.224,0.5-0.5C86.023,43.494,85.799,43.27,85.523,43.27z"/></g><g><path fill="#9696ab" d="M57.552,50.238c0.388-2.009,3.231-8.983-7.895-17.558c0,0,0.206,5.181-7.741,16.355 c-7.951,11.17,4.578,17.531,4.578,17.531s-3.141-5.369,0.233-11.517c1.294-2.358,1.891-2.296,4.755-8.377 c0,0,1.998,2.06,1.156,6.996c-1.259,7.459,4.702,4.763,4.806,4.867c1.203,3.608,0.512,5.721-0.913,8.03 c-0.26,0.149,13.048-9.111,4.629-18.733C60.182,49.058,58.72,49.935,57.552,50.238z"/><path fill="#472b29" d="M56.53,67.267c-0.228,0-0.451-0.11-0.585-0.312c-0.143-0.215-0.117-0.509,0.012-0.743 l-0.021-0.013c1.278-2.073,1.865-3.894,1.037-6.818c-0.988,0.257-2.783,0.579-4.038-0.541c-1.084-0.967-1.416-2.746-0.987-5.288 c0.46-2.699,0.036-4.443-0.388-5.418c-1.564,3.22-2.37,4.399-3.09,5.452c-0.384,0.563-0.716,1.049-1.128,1.8 c-3.133,5.708-0.362,10.621-0.242,10.828c0.155,0.268,0.116,0.607-0.097,0.833c-0.213,0.226-0.548,0.285-0.825,0.144 c-0.243-0.123-5.961-3.082-7.32-8.605c-0.784-3.185,0.054-6.535,2.489-9.955c7.649-10.756,7.613-15.876,7.611-15.927 c-0.007-0.27,0.142-0.522,0.383-0.644c0.242-0.122,0.53-0.098,0.744,0.067c9.718,7.49,9.107,13.938,8.451,16.967 c0.725-0.386,1.492-0.962,2.078-1.697c0.129-0.162,0.324-0.258,0.531-0.263c0.203-0.004,0.406,0.083,0.542,0.239 c2.228,2.546,3.21,5.311,2.918,8.216c-0.575,5.724-5.95,10.235-7.583,11.481l-0.002-0.002c-0.042,0.041-0.09,0.077-0.142,0.106 C56.77,67.236,56.649,67.267,56.53,67.267z M50.215,34.02c-0.404,2.246-1.941,7.284-7.729,15.421 c-2.186,3.071-2.95,6.032-2.272,8.801c0.749,3.056,3.112,5.286,4.795,6.537c-0.672-2.234-1.144-5.974,1.104-10.067 c0.445-0.811,0.812-1.347,1.2-1.916c0.771-1.128,1.644-2.406,3.535-6.422c0.098-0.208,0.292-0.354,0.518-0.392 c0.23-0.039,0.458,0.038,0.618,0.203c0.092,0.094,2.235,2.375,1.343,7.601c-0.338,2.005-0.152,3.392,0.539,4.008 c0.873,0.777,2.5,0.308,3.112,0.13c0.309-0.088,0.656-0.189,0.96,0.115c0.077,0.077,0.135,0.171,0.169,0.274 c0.761,2.283,0.811,4.031,0.394,5.605c1.982-1.965,4.361-4.997,4.71-8.472c0.229-2.279-0.469-4.478-2.077-6.546 c-0.962,0.949-2.229,1.708-3.408,2.014c-0.232,0.061-0.479-0.002-0.655-0.167c-0.175-0.164-0.254-0.407-0.208-0.643 c0.033-0.17,0.082-0.374,0.139-0.609C57.611,46.998,59.004,41.261,50.215,34.02z"/></g><g><path fill="#6475a3" d="M33.923,70.992c0.504,0,1.004-0.202,1.363-0.596c0.659-0.727,0.584-1.833-0.167-2.47 c-5.02-4.255-8.145-10.165-8.145-16.788c0-6.243,2.825-12.279,8.145-16.788c0.752-0.637,0.827-1.743,0.167-2.47 c-0.66-0.727-1.805-0.799-2.557-0.162c-6.139,5.203-9.251,12.077-9.251,19.373c0,7.616,3.459,14.557,9.251,19.466 C33.073,70.849,33.499,70.992,33.923,70.992z"/><path fill="#472b29" d="M33.923,71.692c-0.604,0-1.189-0.213-1.646-0.6c-6.126-5.191-9.5-12.294-9.5-20 c0-7.646,3.374-14.716,9.499-19.907c1.034-0.876,2.617-0.777,3.527,0.226c0.447,0.492,0.669,1.125,0.626,1.781 c-0.043,0.659-0.348,1.261-0.859,1.693c-5.093,4.316-7.898,10.088-7.898,16.254c0,6.165,2.805,11.938,7.898,16.254 c0.511,0.433,0.816,1.035,0.859,1.694c0.043,0.656-0.179,1.289-0.625,1.78C35.327,71.391,34.641,71.692,33.923,71.692z M33.923,31.982c-0.264,0-0.528,0.089-0.742,0.27c-5.807,4.921-9.004,11.611-9.004,18.839c0,7.288,3.197,14.011,9.004,18.932 c0.446,0.377,1.195,0.332,1.586-0.099c0.188-0.208,0.283-0.473,0.265-0.748c-0.018-0.277-0.148-0.532-0.367-0.717 c-5.412-4.586-8.393-10.738-8.393-17.322s2.981-12.735,8.393-17.322c0.219-0.185,0.349-0.44,0.367-0.717 c0.018-0.274-0.076-0.54-0.266-0.749C34.546,32.107,34.235,31.982,33.923,31.982z"/></g><g><path fill="#472b29" d="M55.813,44.96c-0.212,0-0.41-0.137-0.477-0.35c-0.004-0.014-0.442-1.392-1.261-2.891 c-0.132-0.243-0.043-0.546,0.199-0.679c0.243-0.133,0.546-0.042,0.679,0.199c0.867,1.589,1.318,3.011,1.337,3.07 c0.083,0.264-0.063,0.544-0.327,0.627C55.913,44.953,55.862,44.96,55.813,44.96z"/></g><g><path fill="#fdfcef" d="M28.5,75.5V76h3v-0.5c0,0,4.242,0,5.5,0c2.485,0,4.5-2.015,4.5-4.5 c0-2.333-1.782-4.229-4.055-4.455C37.467,66.364,37.5,66.187,37.5,66c0-2.485-2.015-4.5-4.5-4.5 c-1.438,0-2.703,0.686-3.527,1.736C29.333,60.6,27.171,58.5,24.5,58.5c-2.761,0-5,2.239-5,5c0,0.446,0.077,0.87,0.187,1.282 C19.045,64.005,18.086,63.5,17,63.5c-1.781,0-3.234,1.335-3.455,3.055C13.364,66.533,13.187,66.5,13,66.5 c-2.485,0-4.5,2.015-4.5,4.5s2.015,4.5,4.5,4.5s9.5,0,9.5,0H28.5z"/><path fill="#472b29" d="M24.5,58c-3.033,0-5.5,2.467-5.5,5.5c0,0.016,0,0.031,0,0.047C18.398,63.192,17.71,63,17,63 c-1.831,0-3.411,1.261-3.858,3.005C13.095,66.002,13.048,66,13,66c-2.757,0-5,2.243-5,5s2.243,5,5,5h15.5 c0.276,0,0.5-0.224,0.5-0.5S28.776,75,28.5,75H13c-2.206,0-4-1.794-4-4s1.794-4,4-4c0.117,0,0.23,0.017,0.343,0.032l0.141,0.019 c0.021,0.003,0.041,0.004,0.062,0.004c0.246,0,0.462-0.185,0.495-0.437C14.232,65.125,15.504,64,17,64 c0.885,0,1.723,0.401,2.301,1.1c0.098,0.118,0.241,0.182,0.386,0.182c0.078,0,0.156-0.018,0.228-0.056 c0.209-0.107,0.314-0.346,0.254-0.573C20.054,64.218,20,63.852,20,63.5c0-2.481,2.019-4.5,4.5-4.5 c2.381,0,4.347,1.872,4.474,4.263c0.011,0.208,0.15,0.387,0.349,0.45c0.05,0.016,0.101,0.024,0.152,0.024 c0.15,0,0.296-0.069,0.392-0.192C30.638,62.563,31.779,62,33,62c2.206,0,4,1.794,4,4c0,0.117-0.017,0.23-0.032,0.343 l-0.019,0.141c-0.016,0.134,0.022,0.268,0.106,0.373c0.084,0.105,0.207,0.172,0.34,0.185C39.451,67.247,41,68.949,41,71 c0,2.206-1.794,4-4,4h-5.5c-0.276,0-0.5,0.224-0.5,0.5s0.224,0.5,0.5,0.5H37c2.757,0,5-2.243,5-5 c0-2.397-1.689-4.413-4.003-4.877C37.999,66.082,38,66.041,38,66c0-2.757-2.243-5-5-5c-1.176,0-2.293,0.416-3.183,1.164 C29.219,59.76,27.055,58,24.5,58L24.5,58z"/><path fill="#472b29" d="M23,65c-1.403,0-2.609,0.999-2.913,2.341C19.72,67.119,19.301,67,18.875,67 c-1.202,0-2.198,0.897-2.353,2.068C16.319,69.022,16.126,69,15.937,69c-1.529,0-2.811,1.2-2.918,2.732 C13.01,71.87,13.114,71.99,13.251,72c0.006,0,0.012,0,0.018,0c0.13,0,0.24-0.101,0.249-0.232 c0.089-1.271,1.151-2.268,2.419-2.268c0.229,0,0.47,0.042,0.738,0.127c0.022,0.007,0.045,0.01,0.067,0.01 c0.055,0,0.11-0.02,0.156-0.054C16.962,69.537,17,69.455,17,69.375c0-1.034,0.841-1.875,1.875-1.875 c0.447,0,0.885,0.168,1.231,0.473c0.047,0.041,0.106,0.063,0.165,0.063c0.032,0,0.063-0.006,0.093-0.019 c0.088-0.035,0.148-0.117,0.155-0.212C20.623,66.512,21.712,65.5,23,65.5c0.208,0,0.425,0.034,0.682,0.107 c0.023,0.007,0.047,0.01,0.07,0.01c0.109,0,0.207-0.073,0.239-0.182c0.038-0.133-0.039-0.271-0.172-0.309 C23.517,65.04,23.256,65,23,65L23,65z"/></g><g><path fill="#472b29" d="M46.542,46.982c-0.102,0-0.205-0.031-0.293-0.096c-0.224-0.163-0.273-0.475-0.11-0.698l0.124-0.17 c0.53-0.728,1.03-1.415,1.533-2.242c1.756-2.886,3.006-6.465,3.019-6.501c0.053-0.152,0.176-0.27,0.33-0.315 c0.156-0.046,0.322-0.014,0.449,0.085c0.057,0.044,1.413,1.107,2.354,2.578c0.149,0.232,0.082,0.542-0.151,0.69 c-0.233,0.15-0.542,0.082-0.69-0.151c-0.502-0.783-1.151-1.452-1.6-1.869c-0.457,1.205-1.498,3.771-2.856,6.003 c-0.525,0.863-1.037,1.566-1.579,2.311l-0.124,0.17C46.849,46.911,46.696,46.982,46.542,46.982z"/></g><g><path fill="#472b29" d="M44.417,49.947c-0.111,0-0.223-0.037-0.315-0.112c-0.214-0.174-0.247-0.489-0.073-0.703 c0.007-0.009,0.372-0.459,1.016-1.38c0.159-0.227,0.47-0.281,0.696-0.123c0.226,0.158,0.281,0.47,0.123,0.696 c-0.678,0.969-1.059,1.438-1.059,1.438C44.707,49.884,44.562,49.947,44.417,49.947z"/></g><g><path fill="#472b29" d="M60.13,58.57c-0.104,0-0.21-0.033-0.3-0.1c-0.221-0.166-0.265-0.479-0.1-0.7l0.494-0.642 c0.165-0.221,0.478-0.268,0.7-0.101c0.221,0.166,0.267,0.479,0.101,0.7l-0.495,0.644C60.433,58.501,60.282,58.57,60.13,58.57z"/></g><g><path fill="#472b29" d="M61.465,56.495c-0.07,0-0.142-0.015-0.21-0.046c-0.25-0.116-0.359-0.414-0.243-0.664 c0.662-1.427,0.58-2.928-0.221-4.015c-0.164-0.222-0.117-0.535,0.106-0.699c0.221-0.164,0.535-0.117,0.699,0.106 c1.021,1.385,1.142,3.265,0.323,5.028C61.834,56.387,61.654,56.495,61.465,56.495z"/></g><g><path fill="#fff" d="M86.5,69h-10c-0.276,0-0.5,0.224-0.5,0.5s0.224,0.5,0.5,0.5h10c0.276,0,0.5-0.224,0.5-0.5 S86.776,69,86.5,69z"/><path fill="#fff" d="M90.5,69h-2c-0.276,0-0.5,0.224-0.5,0.5s0.224,0.5,0.5,0.5h2c0.276,0,0.5-0.224,0.5-0.5 S90.776,69,90.5,69z"/><path fill="#fff" d="M95.5,67h-10c-0.276,0-0.5,0.224-0.5,0.5s0.224,0.5,0.5,0.5h10c0.276,0,0.5-0.224,0.5-0.5 S95.777,67,95.5,67z"/><path fill="#fff" d="M83.5,67h-1c-0.276,0-0.5,0.224-0.5,0.5s0.224,0.5,0.5,0.5h1c0.276,0,0.5-0.224,0.5-0.5 S83.776,67,83.5,67z"/><path fill="#fff" d="M80.47,67H78.5c-0.276,0-0.5,0.224-0.5,0.5s0.224,0.5,0.5,0.5h1.97c0.276,0,0.5-0.224,0.5-0.5 S80.746,67,80.47,67z"/><path fill="#fff" d="M89.5,71h-5c-0.276,0-0.5,0.224-0.5,0.5s0.224,0.5,0.5,0.5h5c0.276,0,0.5-0.224,0.5-0.5 S89.777,71,89.5,71z"/><path fill="#fff" d="M86.5,65h-2c-0.276,0-0.5,0.224-0.5,0.5s0.224,0.5,0.5,0.5h2c0.276,0,0.5-0.224,0.5-0.5 S86.776,65,86.5,65z"/></g></svg>